<svg id="Layer_1" data-name="Layer 1" xmlns="http://www.w3.org/2000/svg" viewBox="0 0 532.34 483.43"><defs><style>.cls-1{fill:#00a6d5;}</style></defs><path class="cls-1" d="M354.4,173.42a4.34,4.34,0,0,0-4.41.49,10.42,10.42,0,0,0-3.27,4.77,9.81,9.81,0,0,0-.8,5.58,4.43,4.43,0,0,0,3,3.24c1.88.73,3.42.71,4.63-.08a9,9,0,0,0,3.07-4.4l.19-.49a10.91,10.91,0,0,0,.94-5.69C357.46,175.33,356.36,174.19,354.4,173.42Z" transform="translate(-31.47 -55.92)"/><path class="cls-1" d="M378,187.88a4.38,4.38,0,0,0-.35-2.53,4.46,4.46,0,0,0-2-1.92,4.61,4.61,0,0,0-3.93-.44,7.28,7.28,0,0,0-3.49,2.94l8.7,4.86A8.62,8.62,0,0,0,378,187.88Z" transform="translate(-31.47 -55.92)"/><path class="cls-1" d="M420.79,439.38l-6.45,7.6a8.75,8.75,0,0,0,2.65,1.56,4.32,4.32,0,0,0,2.55.15,4.5,4.5,0,0,0,2.27-1.55,4.6,4.6,0,0,0,1.19-3.76A7.32,7.32,0,0,0,420.79,439.38Z" transform="translate(-31.47 -55.92)"/><path class="cls-1" d="M413.32,230.85a3.83,3.83,0,0,0,2.34-.33,11.35,11.35,0,0,0,2.73-1.81,11.17,11.17,0,0,0,2.19-2.42,3.38,3.38,0,0,0-.35-4.39,3.33,3.33,0,0,0-3.07-1.34,8.13,8.13,0,0,0-3.93,2.14,10.82,10.82,0,0,0-2.2,2.43,3.87,3.87,0,0,0-.67,2.28,4.2,4.2,0,0,0,3,3.44Z" transform="translate(-31.47 -55.92)"/><path class="cls-1" d="M436.71,408.49a3.42,3.42,0,0,0-1.92-2.65,3,3,0,0,0-2.61-.28,4,4,0,0,0-1.92,1.93,5.94,5.94,0,0,0-.66,4.29,5.4,5.4,0,0,0,3,3.41l1.57.84,1.24-2.6C436.44,411.31,436.87,409.67,436.71,408.49Z" transform="translate(-31.47 -55.92)"/><path class="cls-1" d="M426.6,249.18a4.15,4.15,0,0,0,2.32-.11,11.49,11.49,0,0,0,2.94-1.42,8.54,8.54,0,0,0,3.18-3.09,2.93,2.93,0,0,0-.23-3.07,3.66,3.66,0,0,0-1.67-1.52,3.25,3.25,0,0,0-2.1-.05,10.4,10.4,0,0,0-2.69,1.24l-.49.32a13,13,0,0,0-2.52,2,3.71,3.71,0,0,0-1,2.08,3.46,3.46,0,0,0,.66,2.3A2.89,2.89,0,0,0,426.6,249.18Z" transform="translate(-31.47 -55.92)"/><path class="cls-1" d="M445.75,265.21a3.27,3.27,0,0,0,.83-1.71,3.49,3.49,0,0,0-.36-2.08,3.44,3.44,0,0,0-2-1.87,4.79,4.79,0,0,0-3.35.27l3.1,6.67A5.48,5.48,0,0,0,445.75,265.21Z" transform="translate(-31.47 -55.92)"/><path class="cls-1" d="M563.81,359.45v-71l-69.2-13.84-21.22-51.66,37.83-61.81L461.4,111.28l-57.27,40.59-56.21-19.38L333.16,55.92h-71l-15.69,77.5-50.74,18.45L139,109.43,84.06,163.86,125.57,222,103.43,275.5l-72,14.76v72l71.13,13.17,20.21,56-40.6,55.36,53.52,52.58,58.11-36.89,29.36,12.91h0c5.8-4.18,28-21.11,28.68-35.84.48-10-8.46-26.91-21.32-40.88-7.8-8.48-21.28-32.9-3.38-54.76,18.7-22.82,43.55-40.83,46.25-66.34,2.34-22.12-13.22-37.13-12-66.89.75-18.27,19.65-50.77,55.28-82.18-61.72,78.92-5.47,116.17,4.63,127.14-4.63-16-3-53.69,21-80.4-10.18,23.29-8.54,44.59,22,85.26,39.8,53,37.19,82.2,35.62,92.68-5.05,33.71-50.91,64.83-51.14,86.23-.13,12.1,18.19,29.76,25.09,36h.74l36-18.45,48.9,42.44L514,484.92l-39.68-54.43L496.45,377ZM240.5,332.57c-6.83,8.58-28.71,29.92-32.59,42.79-10.61-22.06,9.13-44.25,17.72-54.23,11.79-13.69,24.49-30.2,18.72-48.2C259.54,295.43,254.14,315.41,240.5,332.57Zm216-54.81-2.2,1.41.09.28a5.42,5.42,0,0,1,2,1,6.3,6.3,0,0,1,1.48,1.68,8.83,8.83,0,0,1,1,2.14,7,7,0,0,1-.2,5.23q-1.08,2.29-4.7,3.4l-12.26,3.74-1.53-5,11-3.34a5.46,5.46,0,0,0,2.82-1.65,2.64,2.64,0,0,0,.35-2.55,3.35,3.35,0,0,0-2.56-2.65,10.52,10.52,0,0,0-4.86.56l-8.84,2.7-1.53-5,18.79-5.74ZM446.62,256a10.47,10.47,0,0,1,4,8.43,7.12,7.12,0,0,1-1.5,4,10.3,10.3,0,0,1-4,3l-2.36,1.1-5.21-11.24a5.2,5.2,0,0,0-2.67,2.71,4.59,4.59,0,0,0,.28,3.68,13.9,13.9,0,0,0,1.77,2.89,16.67,16.67,0,0,0,2.38,2.37l-3.77,1.74a12.45,12.45,0,0,1-2.21-2.26,17.82,17.82,0,0,1-1.89-3.28,11.5,11.5,0,0,1-1.16-5.09,7.9,7.9,0,0,1,1.55-4.56,11.36,11.36,0,0,1,4.57-3.52,13,13,0,0,1,5.68-1.38A7.82,7.82,0,0,1,446.62,256Zm-11.07-20.58-1.75,2,.13.2a7.85,7.85,0,0,1,1.9.27,5.6,5.6,0,0,1,1.86.93,6.76,6.76,0,0,1,1.64,1.81,6.36,6.36,0,0,1,.65,5.82q-1.1,3.08-5.29,5.77a14.79,14.79,0,0,1-5.24,2.24,7.55,7.55,0,0,1-4.3-.35,6.53,6.53,0,0,1-3-2.59,7,7,0,0,1-1-2.21,5.63,5.63,0,0,1-.14-1.93,8,8,0,0,1,.37-1.69l-.15-.23a12.72,12.72,0,0,1-1.1,1c-.39.3-.78.58-1.18.84l-6.67,4.28-2.83-4.42,23.83-15.27ZM419.4,216.11a10,10,0,0,1,4.15,3,9.71,9.71,0,0,1,2.23,4.4,8.25,8.25,0,0,1-.48,4.73,11.82,11.82,0,0,1-3.42,4.52,13.64,13.64,0,0,1-3.73,2.35,8.72,8.72,0,0,1-3.65.67,7.8,7.8,0,0,1-3.43-1,10.67,10.67,0,0,1-3-2.51,10.14,10.14,0,0,1-1.92-3.26,8.27,8.27,0,0,1-.41-3.52,8.87,8.87,0,0,1,1.18-3.55,13,13,0,0,1,2.86-3.35,12.32,12.32,0,0,1,4.94-2.75A7.89,7.89,0,0,1,419.4,216.11Zm-65.63-24.47.6-2.71-.12-.05a6.61,6.61,0,0,1-1.82,1,6.38,6.38,0,0,1-2.22.33,7.84,7.84,0,0,1-2.62-.58,7,7,0,0,1-4.36-4.39q-1-3.09.76-7.67t4.72-6.22a7,7,0,0,1,6.21-.3,7.53,7.53,0,0,1,2.28,1.33,6.2,6.2,0,0,1,1.4,1.71,6.43,6.43,0,0,1,.7,1.92l.2.08c.09-.36.23-.84.41-1.44s.36-1.1.5-1.47l2.82-7.18,2.65,1-10,25.46Zm20,9.39a14.09,14.09,0,0,1-2.93-.55,16,16,0,0,1-3-1.35,9.49,9.49,0,0,1-3.58-3.3,7.75,7.75,0,0,1-1.12-4.44,11.91,11.91,0,0,1,1.65-5.24,12.94,12.94,0,0,1,3.52-4.2,7.92,7.92,0,0,1,4.23-1.66,7.8,7.8,0,0,1,4.43,1.07,7.51,7.51,0,0,1,3.07,3,7,7,0,0,1,.81,3.94,10.79,10.79,0,0,1-1.44,4.44l-.88,1.58-11.36-6.34a7.72,7.72,0,0,0-1.08,5.32,5.8,5.8,0,0,0,3.07,3.75,13.26,13.26,0,0,0,2.92,1.24,17.25,17.25,0,0,0,3,.54Zm4.14,3.95,15.52-22.53,2.36,1.63L380.23,206.6Zm7.92,5.71,10.56-13.29-2.6-2.07.87-1.11,3.21,1.32.8-1a9.4,9.4,0,0,1,3-2.65,4.68,4.68,0,0,1,3-.48,6.93,6.93,0,0,1,3,1.46,10,10,0,0,1,1.43,1.39,14.12,14.12,0,0,1,1,1.33l-2,1.35a12.74,12.74,0,0,0-.81-1.1,6.25,6.25,0,0,0-1.06-1.06,2.77,2.77,0,0,0-2.56-.66,5.86,5.86,0,0,0-2.72,2.17l-.87,1.1,3.67,2.92-1.42,1.78-3.67-2.92L388,212.47Zm13.66,12.14a9.77,9.77,0,0,1-1.37-1.06,6.7,6.7,0,0,1-1.62-2.24,4.14,4.14,0,0,1-.18-2.66,7.29,7.29,0,0,1,1.89-3.1l7.8-8.35-2-1.83,1-1,2.75,1,3.69-2.29,1.25,1.18-3.05,3.26,4,3.76-1.56,1.67-4-3.76-7.74,8.29a3.86,3.86,0,0,0-1.25,2.53,2.8,2.8,0,0,0,1,2.14,10.27,10.27,0,0,0,1.14.9,7.86,7.86,0,0,0,1.08.6l-1.54,1.66A6.15,6.15,0,0,1,399.45,222.83Zm-.67,223a2,2,0,0,1,1.41-.6,2.31,2.31,0,0,1,1.65.85,2.24,2.24,0,0,1,.8,1.66,2,2,0,0,1-.65,1.37,2.16,2.16,0,0,1-1.42.66,2.19,2.19,0,0,1-1.65-.83,2.29,2.29,0,0,1-.81-1.68A2.09,2.09,0,0,1,398.78,445.87Zm-9.67,43-14.86-23,2.4-1.55,14.87,22.95ZM404,468l-2.07-1.91-.12.1a5.68,5.68,0,0,1-.13,2.29,6.64,6.64,0,0,1-1,2.12,8.11,8.11,0,0,1-1.67,1.8,7,7,0,0,1-5,1.85q-2.38-.24-4.7-3.14l-7.83-9.8,2.2-1.76,7.71,9.65a5.24,5.24,0,0,0,3.09,2.15,4.22,4.22,0,0,0,3.31-1.12q2.44-2,2.31-4.16a9,9,0,0,0-2.29-4.9l-6.29-7.88,2.22-1.78,12,15.05Zm21.54-23.41a7.83,7.83,0,0,1-1.9,4.14,7.6,7.6,0,0,1-3.5,2.44,7.08,7.08,0,0,1-4,0,11,11,0,0,1-4.08-2.27l-1.38-1.18,8.42-9.91a7.66,7.66,0,0,0-5-2.09,5.76,5.76,0,0,0-4.27,2.28,13.5,13.5,0,0,0-1.79,2.63,16.79,16.79,0,0,0-1.1,2.81l-2-1.66A14,14,0,0,1,406,439a16.06,16.06,0,0,1,1.91-2.71,9.59,9.59,0,0,1,3.93-2.88,7.79,7.79,0,0,1,4.57-.23,11.74,11.74,0,0,1,4.82,2.63,13.05,13.05,0,0,1,3.45,4.27A8,8,0,0,1,425.51,444.58Zm10.55-13L433,429.88l-.07.1a9.65,9.65,0,0,1,.83,2.27,6.11,6.11,0,0,1,.1,2.37,5.45,5.45,0,0,1-.93,2.31,11.71,11.71,0,0,1-.71.95,10.61,10.61,0,0,1-.76.82l-2-1.82a8.56,8.56,0,0,0,.73-.74,9.36,9.36,0,0,0,.66-.85,5,5,0,0,0,.81-2,5.19,5.19,0,0,0-.12-2.21,6.25,6.25,0,0,0-1.06-2.15,8.47,8.47,0,0,0-2-1.88l-8.56-5.79,1.61-2.38,15.95,10.8Zm10-17.53a12.59,12.59,0,0,1-1.21,3.29,7,7,0,0,1-3.71,3.69q-2.13.72-5.13-.87l-11.57-6.13,1-1.84,2.77.85.07-.12a10.07,10.07,0,0,1-.79-2.29,5.86,5.86,0,0,1,0-2.25,9.09,9.09,0,0,1,1-2.61,7.3,7.3,0,0,1,2-2.4,4.69,4.69,0,0,1,2.63-1,6.05,6.05,0,0,1,3.16.8,5.06,5.06,0,0,1,2.86,4c.22,1.8-.35,4.07-1.69,6.8L436,417l1,.55a4.7,4.7,0,0,0,3.58.71,4.07,4.07,0,0,0,2.27-2.14,9.06,9.06,0,0,0,.93-2.69,18.59,18.59,0,0,0,.28-2.74l2.37.27A16.42,16.42,0,0,1,446.1,414.09Zm12.46-30.35-10.93-1-2.14-.2-2-.24c-.61-.09-1.13-.18-1.57-.28l-.05.13.92.57,1.14.71,1.19.8,1.11.79,9.36,7-1,2.9L443,394.37c-.58,0-1.19-.06-1.82-.11l-1.82-.16c-.58-.06-1.09-.14-1.53-.23l-.05.13c.36.17.8.42,1.31.73l1.68,1.06c.6.39,1.22.79,1.84,1.21l9.11,6.14-1,2.74L434.3,394.54l1.1-3.12,11.69.58,1.48.07,1.38.11,1.22.12,1,.12,0-.11-.84-.5c-.32-.2-.67-.42-1-.67l-1.17-.79c-.41-.27-.81-.57-1.21-.88l-9.35-7,1.07-3L459.54,381Zm10-7.11-26.87-5.1.43-2.26,2.77.09,0-.12a6.46,6.46,0,0,1-1.28-1.62,6.14,6.14,0,0,1-.74-2.11,7.69,7.69,0,0,1,.09-2.68,7,7,0,0,1,3.51-5.1q2.84-1.59,7.68-.67t7,3.49a7,7,0,0,1,1.44,6.05,7.83,7.83,0,0,1-.88,2.49,6.6,6.6,0,0,1-1.42,1.69,6.91,6.91,0,0,1-1.77,1l0,.21c.37,0,.87.07,1.5.14s1.14.15,1.53.22l7.58,1.44Zm-6-50.21a19.06,19.06,0,0,0-1.11-2.51l2.19-.94a14.76,14.76,0,0,1,1.22,2.88,12.66,12.66,0,0,1,.58,3.46,7.07,7.07,0,0,1-1.4,5q-1.5,1.68-4.89,1.78l-13.09.37-.06-2.07,2.83-.64v-.13a10.64,10.64,0,0,1-1.81-1.6,5.91,5.91,0,0,1-1.13-1.95,9.2,9.2,0,0,1-.44-2.75,7.19,7.19,0,0,1,.53-3.07,4.69,4.69,0,0,1,1.8-2.14,5.94,5.94,0,0,1,3.14-.86,5.06,5.06,0,0,1,4.49,2.1c1.08,1.46,1.7,3.71,1.89,6.76l.23,3.24,1.18,0a4.7,4.7,0,0,0,3.46-1.14,4.1,4.1,0,0,0,.92-3A9,9,0,0,0,462.57,326.42Zm.53,21.29a6.4,6.4,0,0,1,1.27,2,5.46,5.46,0,0,1,.34,2.47c0,.37-.08.77-.15,1.18a8.65,8.65,0,0,1-.25,1.08l-2.67-.56a7.9,7.9,0,0,0,.27-1,7,7,0,0,0,.15-1.05,5,5,0,0,0-.3-2.17,5.31,5.31,0,0,0-1.2-1.86,6.38,6.38,0,0,0-2-1.34,7.93,7.93,0,0,0-2.68-.63l-10.3-.78.21-2.86L465,343.63l-.17,2.36-3.57.05v.12A9.17,9.17,0,0,1,463.1,347.71Zm-.92-46.1c-.46.07-.93.13-1.4.18s-.91.08-1.32.09l0,.19a5.66,5.66,0,0,1,1.93,1.2,6.57,6.57,0,0,1,1.36,1.86,8.26,8.26,0,0,1,.73,2.35,8.56,8.56,0,0,1-.14,3.86,4.83,4.83,0,0,1-1.9,2.61,8.92,8.92,0,0,1-3.84,1.38l-12.4,1.95-.44-2.78L457,312.58a5.22,5.22,0,0,0,3.39-1.62,4.2,4.2,0,0,0,.67-3.44,6,6,0,0,0-1.32-3.17,4.47,4.47,0,0,0-2.65-1.39,12,12,0,0,0-3.91.06l-9.95,1.57-.44-2.82,27-4.25.44,2.82Z" transform="translate(-31.47 -55.92)"/><path class="cls-1" d="M460.16,366.53a4.33,4.33,0,0,0-1.29-4.25,10.48,10.48,0,0,0-5.29-2.33,9.8,9.8,0,0,0-5.63.25,4.43,4.43,0,0,0-2.64,3.52q-.56,3,.93,4.53a9,9,0,0,0,4.9,2.2l.51.1a10.92,10.92,0,0,0,5.77-.12Q459.58,369.62,460.16,366.53Z" transform="translate(-31.47 -55.92)"/><path class="cls-1" d="M454,325.62a3.43,3.43,0,0,0-3-1.36,2.92,2.92,0,0,0-2.41,1.05,4,4,0,0,0-.72,2.62,5.94,5.94,0,0,0,1.54,4.06,5.41,5.41,0,0,0,4.32,1.47l1.77,0-.2-2.86C455.11,328.21,454.67,326.56,454,325.62Z" transform="translate(-31.47 -55.92)"/></svg>